<?xml version="1.0" standalone="no"?>
<!DOCTYPE svg PUBLIC "-//W3C//DTD SVG 20010904//EN"
 "http://www.w3.org/TR/2001/REC-SVG-20010904/DTD/svg10.dtd">
<svg version="1.0" xmlns="http://www.w3.org/2000/svg"
 width="940.000000pt" height="788.000000pt" viewBox="0 0 940.000000 788.000000"
 preserveAspectRatio="xMidYMid meet">

<g transform="translate(0.000000,788.000000) scale(0.100000,-0.100000)"
fill="#000000" stroke="none">
<path d="M4147 3083 c-25 -58 -26 -83 -3 -50 17 22 62 22 75 0 5 -10 12 -15
15 -12 8 8 -41 119 -53 119 -4 0 -20 -26 -34 -57z m52 -15 c1 -5 -8 -8 -19 -8
-23 0 -24 4 -8 33 11 21 11 21 19 2 4 -11 8 -23 8 -27z"/>
<path d="M4280 3093 c0 -27 5 -54 12 -61 17 -17 54 -15 72 4 18 17 22 89 6 99
-6 4 -10 -8 -10 -29 0 -50 -9 -66 -36 -66 -22 0 -24 4 -24 44 0 25 -4 48 -10
51 -6 4 -10 -13 -10 -42z"/>
<path d="M4410 3130 c0 -5 9 -10 20 -10 17 0 20 -7 20 -50 0 -27 5 -50 10 -50
6 0 10 23 10 50 0 38 4 50 15 50 8 0 15 5 15 10 0 6 -20 10 -45 10 -25 0 -45
-4 -45 -10z"/>
<path d="M4555 3115 c-30 -29 -31 -49 -5 -75 35 -35 90 -21 105 27 4 17 -1 29
-19 48 -31 31 -50 32 -81 0z m69 -11 c19 -18 19 -20 6 -45 -6 -11 -21 -19 -35
-19 -20 0 -45 24 -45 44 0 10 32 36 45 36 7 0 21 -7 29 -16z"/>
<path d="M4702 3078 c1 -60 1 -61 7 -18 l6 45 14 -33 c20 -47 28 -47 50 -5
l20 38 1 -42 c0 -24 5 -43 10 -43 6 0 10 27 10 61 0 70 -13 74 -46 15 l-21
-37 -18 41 c-10 22 -22 40 -27 40 -4 0 -7 -28 -6 -62z"/>
<path d="M4884 3084 c-14 -31 -22 -59 -19 -63 4 -3 11 2 16 12 12 21 57 23 65
2 4 -8 12 -15 19 -15 10 0 6 17 -13 60 -15 33 -30 60 -35 60 -4 0 -19 -25 -33
-56z m46 -11 c0 -7 -7 -13 -15 -13 -16 0 -19 9 -9 35 5 13 8 14 15 3 5 -7 9
-19 9 -25z"/>
<path d="M5000 3130 c0 -5 9 -10 20 -10 17 0 20 -7 20 -50 0 -27 5 -50 10 -50
6 0 10 23 10 50 0 38 4 50 15 50 8 0 15 5 15 10 0 6 -20 10 -45 10 -25 0 -45
-4 -45 -10z"/>
<path d="M5130 3080 l0 -60 46 0 c27 0 43 4 39 10 -3 6 -19 10 -36 10 -19 0
-29 5 -29 15 0 10 10 15 31 15 17 0 28 4 24 10 -3 6 -17 10 -31 10 -15 0 -24
6 -24 15 0 10 10 15 30 15 17 0 30 5 30 10 0 6 -18 10 -40 10 l-40 0 0 -60z"/>
<path d="M5250 3030 c0 -5 5 -10 10 -10 6 0 10 5 10 10 0 6 -4 10 -10 10 -5 0
-10 -4 -10 -10z"/>
<path d="M4087 2903 c-4 -3 -7 -30 -7 -60 l0 -53 45 0 c25 0 45 5 45 10 0 6
-16 10 -35 10 -24 0 -35 5 -35 15 0 10 10 15 30 15 17 0 30 5 30 10 0 6 -13
10 -30 10 -20 0 -30 5 -30 15 0 11 11 15 36 15 21 0 33 4 29 10 -7 11 -68 14
-78 3z"/>
<path d="M4200 2901 c0 -17 43 -111 51 -111 10 0 14 6 38 68 11 29 16 52 11
52 -6 0 -15 -12 -20 -27 -26 -72 -25 -71 -48 -20 -19 44 -32 59 -32 38z"/>
<path d="M4350 2850 l0 -60 40 0 c22 0 40 5 40 10 0 6 -16 10 -36 10 -42 0
-43 23 -1 28 37 5 34 22 -4 22 -41 0 -33 24 9 28 46 5 39 22 -8 22 l-40 0 0
-60z"/>
<path d="M4481 2848 c0 -48 2 -58 9 -40 11 27 22 28 45 2 20 -22 44 -28 26 -7
-8 10 -7 22 2 46 11 29 10 34 -7 47 -11 8 -32 14 -48 14 -28 0 -28 -1 -27 -62z
m64 17 c0 -22 -31 -33 -47 -17 -17 17 -1 44 24 40 15 -2 23 -10 23 -23z"/>
<path d="M4620 2870 c11 -21 20 -48 20 -60 0 -11 5 -20 10 -20 6 0 10 7 10 15
0 9 9 34 21 56 25 50 18 64 -10 19 l-19 -32 -16 31 c-9 17 -21 31 -26 31 -6 0
-1 -18 10 -40z"/>
<path d="M4730 2900 c0 -5 7 -10 15 -10 11 0 15 -12 15 -50 0 -27 5 -50 10
-50 6 0 10 23 10 50 0 43 3 50 20 50 11 0 20 5 20 10 0 6 -20 10 -45 10 -25 0
-45 -4 -45 -10z"/>
<path d="M4860 2851 c0 -34 4 -61 10 -61 6 0 10 11 10 25 0 21 5 25 30 25 25
0 30 -4 30 -25 0 -14 5 -25 10 -25 6 0 10 27 10 60 0 33 -4 60 -10 60 -5 0
-10 -11 -10 -25 0 -21 -5 -25 -30 -25 -23 0 -30 5 -30 19 0 11 -4 23 -10 26
-6 4 -10 -17 -10 -54z"/>
<path d="M5010 2851 c0 -34 4 -61 10 -61 6 0 10 24 10 54 0 30 -4 58 -10 61
-6 4 -10 -17 -10 -54z"/>
<path d="M5080 2850 c0 -33 4 -60 10 -60 6 0 10 17 10 38 l1 37 30 -37 c17
-21 35 -38 40 -38 5 0 9 27 9 60 0 68 -17 82 -22 18 l-3 -42 -29 42 c-16 23
-33 42 -37 42 -5 0 -9 -27 -9 -60z"/>
<path d="M5252 2898 c-67 -33 -15 -126 57 -103 22 7 31 55 11 55 -5 0 -10 -9
-10 -21 0 -16 -5 -20 -26 -17 -61 7 -56 74 5 72 33 -2 42 10 15 20 -20 8 -24
7 -52 -6z"/>
<path d="M5370 2800 c0 -5 5 -10 10 -10 6 0 10 5 10 10 0 6 -4 10 -10 10 -5 0
-10 -4 -10 -10z"/>
</g>
</svg>
